<?xml version="1.0" encoding="utf-8"?>
<!-- Generator: Adobe Illustrator 16.0.3, SVG Export Plug-In . SVG Version: 6.00 Build 0)  -->
<!DOCTYPE svg PUBLIC "-//W3C//DTD SVG 1.1//EN" "http://www.w3.org/Graphics/SVG/1.1/DTD/svg11.dtd">
<svg version="1.1" id="Layer_1" xmlns="http://www.w3.org/2000/svg" xmlns:xlink="http://www.w3.org/1999/xlink" x="0px" y="0px"
	 width="100px" height="100px" viewBox="0 0 100 100" enable-background="new 0 0 100 100" xml:space="preserve">
<g>
	<path fill-rule="evenodd" clip-rule="evenodd" fill="none" stroke="#FFFFFF" stroke-miterlimit="2.6131" d="M50.005,2.453
		C77.057,2.453,99,23.747,99,50.001c0,26.256-21.943,47.546-48.995,47.546C22.948,97.547,1,76.257,1,50.001
		C1,23.747,22.948,2.453,50.005,2.453z"/>
	<g>
		<path fill="#FFFFFF" d="M25.033,21.985l1.57-1.236c0.195,0.257,0.4,0.42,0.603,0.497c0.318,0.116,0.643,0.06,0.967-0.17
			c0.242-0.168,0.398-0.357,0.454-0.575c0.062-0.214,0.037-0.402-0.058-0.562c-0.096-0.149-0.242-0.248-0.441-0.28
			c-0.202-0.032-0.559,0.054-1.081,0.264c-0.857,0.343-1.541,0.473-2.041,0.398c-0.503-0.073-0.892-0.343-1.174-0.806
			c-0.184-0.302-0.28-0.651-0.276-1.036c0-0.38,0.117-0.77,0.351-1.157c0.24-0.381,0.646-0.77,1.223-1.171
			c0.71-0.49,1.329-0.726,1.872-0.7c0.54,0.02,1.032,0.314,1.476,0.883l-1.547,1.214c-0.203-0.235-0.415-0.366-0.623-0.393
			c-0.211-0.025-0.432,0.048-0.677,0.219c-0.201,0.138-0.322,0.28-0.367,0.443c-0.046,0.159-0.029,0.307,0.047,0.435
			c0.058,0.095,0.148,0.15,0.279,0.163c0.126,0.021,0.359-0.032,0.707-0.175c0.85-0.352,1.49-0.549,1.918-0.595
			c0.429-0.048,0.796,0.009,1.105,0.168c0.304,0.155,0.557,0.397,0.748,0.717c0.237,0.382,0.351,0.802,0.351,1.26
			c0,0.454-0.135,0.888-0.384,1.297c-0.252,0.407-0.645,0.804-1.18,1.166c-0.94,0.662-1.708,0.916-2.309,0.783
			C25.95,22.899,25.447,22.553,25.033,21.985L25.033,21.985z M35.045,10.89l1.929-0.709l2.146,6.67l-1.929,0.708L35.045,10.89
			L35.045,10.89z M34.791,9.006l0.438,1.366l1.338-0.493l-0.441-1.364L34.791,9.006L34.791,9.006z M45.679,8.188l1.9-0.07
			l2.611,3.803l-0.13-3.896l1.921-0.074l0.229,7.052l-1.917,0.068l-2.593-3.777l0.126,3.871l-1.92,0.075L45.679,8.188L45.679,8.188z
			 M59.691,12.414c0.316-1.096,0.848-1.862,1.592-2.284c0.753-0.431,1.637-0.474,2.66-0.14c1.055,0.343,1.775,0.908,2.171,1.696
			c0.391,0.79,0.436,1.727,0.12,2.81c-0.223,0.793-0.528,1.396-0.916,1.815c-0.398,0.429-0.867,0.702-1.413,0.833
			c-0.555,0.127-1.172,0.077-1.881-0.152c-0.71-0.234-1.263-0.547-1.657-0.943c-0.394-0.392-0.662-0.901-0.805-1.518
			C59.426,13.909,59.465,13.207,59.691,12.414L59.691,12.414z M61.635,13.065c-0.194,0.682-0.219,1.21-0.063,1.587
			c0.149,0.37,0.433,0.628,0.841,0.756c0.416,0.138,0.781,0.099,1.098-0.113c0.31-0.225,0.573-0.704,0.795-1.458
			c0.179-0.636,0.191-1.142,0.03-1.513c-0.151-0.368-0.436-0.621-0.85-0.753c-0.386-0.128-0.741-0.086-1.069,0.137
			C62.096,11.925,61.836,12.38,61.635,13.065L61.635,13.065z M74.922,15.674l2.701,2.18c0.592,0.472,0.932,0.985,1.004,1.517
			c0.079,0.535-0.066,1.079-0.46,1.631c-0.4,0.57-0.869,0.89-1.416,0.948c-0.546,0.065-1.146-0.166-1.798-0.699l-0.887-0.72
			l-1.479,2.095l-1.631-1.319L74.922,15.674L74.922,15.674z M74.863,19.389l0.4,0.324c0.316,0.257,0.574,0.372,0.781,0.363
			c0.212-0.019,0.379-0.115,0.505-0.295c0.127-0.185,0.179-0.372,0.155-0.587c-0.023-0.214-0.193-0.441-0.496-0.686l-0.462-0.373
			L74.863,19.389z"/>
	</g>
	<g>
		<path fill="#FFFFFF" d="M18.202,65.884l0.985,1.907l-3.438,2.037c-0.34,0.204-0.691,0.332-1.053,0.404
			c-0.358,0.063-0.717,0.043-1.07-0.067c-0.354-0.105-0.645-0.264-0.875-0.48c-0.318-0.293-0.616-0.696-0.885-1.218
			c-0.152-0.303-0.302-0.639-0.448-1.021c-0.146-0.374-0.225-0.72-0.225-1.022c-0.008-0.311,0.043-0.626,0.155-0.953
			c0.114-0.324,0.261-0.591,0.458-0.799c0.304-0.337,0.601-0.594,0.88-0.761l3.439-2.032l0.98,1.897l-3.512,2.094
			c-0.316,0.186-0.518,0.42-0.595,0.713c-0.079,0.294-0.039,0.599,0.137,0.935c0.172,0.329,0.39,0.535,0.662,0.616
			c0.268,0.084,0.562,0.028,0.882-0.158L18.202,65.884L18.202,65.884z M18.259,62.592l-0.981,0.579l0.562,1.094l0.983-0.583
			L18.259,62.592L18.259,62.592z M19.177,64.372l-0.979,0.58l0.569,1.111l0.985-0.583L19.177,64.372L19.177,64.372z M20.692,70.442
			l1.251,1.533l-1.126,4.566l2.756-2.56l1.257,1.55l-4.975,4.626l-1.261-1.554l1.116-4.529l-2.734,2.541l-1.257-1.546L20.692,70.442
			L20.692,70.442z M27.297,77.264l-3.878,5.704l1.655,1.288l3.875-5.71L27.297,77.264L27.297,77.264z M28.59,75.959l1.146,0.889
			l-0.795,1.165l-1.144-0.887L28.59,75.959L28.59,75.959z M30.385,79.914l2,0.776l-0.229,5.317l2.998-4.234l1.943,0.755
			l-4.556,5.729l-2.074-0.808L30.385,79.914L30.385,79.914z M39.43,83.357l5.375,1.012l-0.246,1.482l-3.362-0.636l-0.184,1.104
			l3.122,0.591l-0.233,1.417l-3.12-0.591l-0.225,1.373l3.464,0.653l-0.261,1.573l-5.474-1.032L39.43,83.357L39.43,83.357z
			 M47.789,91.73l-0.225-7.048l3.396-0.125c0.628-0.028,1.108,0.012,1.44,0.114c0.342,0.105,0.613,0.305,0.827,0.612
			c0.215,0.307,0.329,0.681,0.35,1.131c0.013,0.392-0.058,0.731-0.201,1.02c-0.148,0.29-0.351,0.531-0.621,0.713
			c-0.178,0.122-0.407,0.218-0.71,0.303c0.245,0.081,0.428,0.163,0.536,0.246c0.081,0.053,0.192,0.173,0.343,0.357
			c0.15,0.188,0.25,0.32,0.3,0.425l1.05,2.01l-2.301,0.085l-1.154-2.116c-0.146-0.271-0.278-0.448-0.388-0.528
			c-0.151-0.105-0.322-0.152-0.505-0.143l-0.175,0.003l0.088,2.861L47.789,91.73L47.789,91.73z M49.698,87.459l0.863-0.032
			c0.095-0.003,0.27-0.04,0.539-0.116c0.133-0.034,0.238-0.111,0.321-0.235c0.077-0.119,0.115-0.254,0.112-0.408
			c-0.008-0.231-0.077-0.399-0.223-0.521c-0.134-0.112-0.389-0.165-0.763-0.152l-0.889,0.035L49.698,87.459L49.698,87.459z
			 M56.967,88.707l1.887-0.518c0.096,0.318,0.227,0.557,0.385,0.698c0.256,0.237,0.576,0.32,0.964,0.237
			c0.28-0.056,0.489-0.178,0.62-0.352c0.124-0.173,0.173-0.358,0.138-0.544c-0.031-0.18-0.134-0.33-0.308-0.441
			c-0.178-0.106-0.537-0.171-1.099-0.187c-0.917-0.028-1.589-0.175-2.026-0.447c-0.443-0.273-0.71-0.679-0.807-1.221
			c-0.07-0.353-0.035-0.718,0.101-1.066c0.14-0.359,0.38-0.664,0.735-0.93c0.359-0.262,0.87-0.461,1.547-0.604
			c0.82-0.169,1.482-0.138,1.983,0.105c0.485,0.236,0.844,0.708,1.054,1.404l-1.867,0.51c-0.105-0.298-0.256-0.502-0.434-0.617
			c-0.186-0.104-0.424-0.123-0.705-0.067c-0.23,0.043-0.398,0.133-0.498,0.266c-0.098,0.126-0.133,0.27-0.104,0.424
			c0.018,0.105,0.086,0.195,0.198,0.263c0.111,0.078,0.349,0.113,0.718,0.118c0.912,0.019,1.576,0.093,1.986,0.223
			c0.416,0.124,0.741,0.324,0.969,0.594c0.227,0.27,0.377,0.594,0.44,0.975c0.081,0.439,0.042,0.869-0.115,1.293
			c-0.169,0.421-0.437,0.779-0.811,1.053c-0.376,0.283-0.88,0.486-1.504,0.617c-1.101,0.227-1.902,0.16-2.409-0.21
			C57.498,89.923,57.15,89.398,56.967,88.707L56.967,88.707z M64.926,81.665l1.929-0.711l2.149,6.674l-1.934,0.71L64.926,81.665
			L64.926,81.665z M64.669,79.784l0.437,1.362l1.34-0.49l-0.439-1.367L64.669,79.784L64.669,79.784z M69.48,79.704l5.465-3.106
			l0.77,1.538l-1.834,1.045l2.324,4.688l-1.795,1.022l-2.327-4.689l-1.835,1.042L69.48,79.704L69.48,79.704z M76.469,75.25
			l3.93-4.061l0.977,1.087l-2.461,2.537l0.731,0.803l2.278-2.352l0.93,1.033l-2.275,2.361l0.906,0.995l2.524-2.617l1.034,1.15
			l-3.996,4.135L76.469,75.25L76.469,75.25z M85.68,72.135c0.611,0.273,1.214,0.321,1.797,0.127c0.583-0.186,1.136-0.811,1.666-1.87
			c0.301-0.606,0.465-1.15,0.5-1.636c0.036-0.493-0.049-0.936-0.26-1.337c-0.205-0.402-0.492-0.706-0.865-0.918
			c-0.318-0.183-0.646-0.264-0.98-0.241c-0.344,0.019-0.688,0.164-1.043,0.43c-0.348,0.261-0.826,0.762-1.415,1.509
			c-0.23,0.307-0.415,0.48-0.536,0.529c-0.121,0.045-0.222,0.045-0.315-0.004c-0.134-0.069-0.206-0.19-0.243-0.358
			c-0.029-0.162,0.012-0.357,0.122-0.574c0.134-0.273,0.296-0.457,0.495-0.543c0.199-0.089,0.441-0.08,0.724,0.022l0.801-1.873
			c-0.643-0.261-1.21-0.266-1.689-0.004c-0.483,0.264-0.925,0.79-1.323,1.584c-0.316,0.651-0.492,1.206-0.529,1.663
			c-0.031,0.458,0.037,0.858,0.213,1.196c0.17,0.332,0.41,0.587,0.711,0.761c0.451,0.252,0.914,0.286,1.39,0.092
			c0.473-0.191,1.006-0.657,1.604-1.404c0.365-0.453,0.643-0.717,0.828-0.793c0.19-0.075,0.362-0.066,0.51,0.023
			c0.158,0.086,0.262,0.24,0.306,0.458c0.05,0.214,0,0.459-0.126,0.73c-0.189,0.374-0.451,0.592-0.782,0.655
			c-0.2,0.036-0.461,0-0.758-0.12L85.68,72.135L85.68,72.135z M85.408,61.762l0.53-2.107l6.366,1.82l-0.526,2.109L85.408,61.762
			L85.408,61.762z M83.808,60.931l1.298,0.377l0.369-1.461l-1.302-0.377L83.808,60.931z"/>
	</g>
	<path fill-rule="evenodd" clip-rule="evenodd" fill="#FFFFFF" d="M50.859,19.144c15.26,0.137,28.189,10.531,31.379,23.769
		c-28.854-7.43-41.604,10.014-63.449,9.62C17.426,32.977,32.903,18.976,50.859,19.144z"/>
	<g>
		<path fill-rule="evenodd" clip-rule="evenodd" fill="#FFFFFF" d="M53.506,70.753c-0.097-0.056-0.22-0.087-0.352-0.087
			c-0.129,0-0.252,0.031-0.352,0.087c-0.106,0.064-0.192,0.174-0.247,0.323c-0.07,0.202-0.113,0.535-0.113,1.01
			c0,0.473,0.038,0.796,0.101,0.979c0.067,0.175,0.153,0.29,0.26,0.348c0.1,0.061,0.223,0.089,0.352,0.089
			c0.132,0,0.255-0.028,0.356-0.089c0.104-0.063,0.185-0.168,0.241-0.32c0.072-0.199,0.117-0.533,0.117-1.006
			c0-0.475-0.037-0.799-0.104-0.978C53.695,70.936,53.611,70.817,53.506,70.753z"/>
		<path fill-rule="evenodd" clip-rule="evenodd" fill="#FFFFFF" d="M3.09,50.22c4.945,3.632,10.975,5.396,16.304,6.928
			c13.012,36.885,61.225,25.35,63.508-5.235c3.855-1.406,9.885-2.489,12.67-1.628C52.633,26.386,40.323,64.946,3.09,50.22z
			 M46.101,73.354v0.721h-3.842c0.034-0.274,0.163-0.531,0.373-0.773c0.21-0.237,0.619-0.563,1.231-0.966
			c0.495-0.326,0.799-0.544,0.913-0.663c0.156-0.154,0.229-0.318,0.229-0.468c0-0.171-0.066-0.306-0.199-0.4
			c-0.135-0.088-0.313-0.139-0.548-0.139c-0.22,0-0.408,0.051-0.544,0.146c-0.135,0.095-0.211,0.26-0.235,0.482l-1.095-0.077
			c0.065-0.422,0.266-0.729,0.613-0.912c0.347-0.186,0.775-0.277,1.292-0.277c0.566,0,1.011,0.108,1.332,0.32
			c0.324,0.215,0.482,0.477,0.482,0.801c0,0.177-0.042,0.355-0.135,0.518c-0.092,0.167-0.237,0.334-0.439,0.515
			c-0.131,0.117-0.371,0.292-0.722,0.512c-0.349,0.221-0.565,0.375-0.657,0.45c-0.094,0.068-0.164,0.144-0.225,0.211H46.101z
			 M50,73.728c-0.306,0.276-0.743,0.411-1.302,0.411c-0.553,0-0.998-0.146-1.345-0.451c-0.337-0.3-0.508-0.835-0.508-1.611
			c0-0.758,0.187-1.304,0.562-1.638c0.315-0.273,0.743-0.41,1.292-0.41c0.559,0,0.996,0.137,1.306,0.42
			c0.373,0.328,0.561,0.874,0.561,1.638C50.566,72.853,50.373,73.396,50,73.728z M54.453,73.728
			c-0.309,0.276-0.745,0.411-1.299,0.411c-0.557,0-1.004-0.146-1.348-0.451c-0.344-0.3-0.513-0.835-0.513-1.611
			c0-0.758,0.19-1.304,0.563-1.638c0.307-0.273,0.74-0.41,1.297-0.41c0.554,0,0.99,0.137,1.303,0.42
			c0.368,0.328,0.559,0.874,0.559,1.638C55.016,72.853,54.825,73.396,54.453,73.728z M59.507,70.661
			c-0.317,0.214-0.628,0.521-0.946,0.924c-0.319,0.396-0.566,0.823-0.734,1.275c-0.166,0.454-0.251,0.858-0.251,1.215h-1.059
			c0.022-0.557,0.183-1.126,0.49-1.707c0.309-0.58,0.726-1.099,1.244-1.551h-2.505v-0.711h3.761V70.661z M80.893,49.783
			l-0.651,2.777l-0.647-2.777l-2.117-0.849l2.117-0.854l0.647-2.777l0.651,2.777l2.109,0.854L80.893,49.783z"/>
		<path fill-rule="evenodd" clip-rule="evenodd" fill="#FFFFFF" d="M49.063,70.753c-0.11-0.056-0.227-0.087-0.364-0.087
			c-0.126,0-0.25,0.031-0.35,0.087c-0.105,0.064-0.186,0.174-0.244,0.323c-0.077,0.202-0.114,0.535-0.114,1.01
			c0,0.473,0.037,0.796,0.099,0.979c0.073,0.175,0.158,0.29,0.259,0.348c0.099,0.061,0.223,0.089,0.35,0.089
			c0.137,0,0.254-0.028,0.364-0.089c0.101-0.063,0.182-0.168,0.237-0.32c0.077-0.199,0.118-0.533,0.118-1.006
			c0-0.475-0.037-0.799-0.104-0.978C49.244,70.936,49.157,70.817,49.063,70.753z"/>
	</g>
</g>
</svg>
